<?xml version="1.0" encoding="utf-8" standalone="no"?>
<!DOCTYPE svg PUBLIC "-//W3C//DTD SVG 1.1//EN"
  "http://www.w3.org/Graphics/SVG/1.1/DTD/svg11.dtd">
<svg xmlns:xlink="http://www.w3.org/1999/xlink" width="856.8pt" height="1000.8pt" viewBox="0 0 856.8 1000.8" xmlns="http://www.w3.org/2000/svg" version="1.1">
 <metadata>
  <rdf:RDF xmlns:dc="http://purl.org/dc/elements/1.1/" xmlns:cc="http://creativecommons.org/ns#" xmlns:rdf="http://www.w3.org/1999/02/22-rdf-syntax-ns#">
   <cc:Work>
    <dc:type rdf:resource="http://purl.org/dc/dcmitype/StillImage"/>
    <dc:date>2026-07-13T23:55:12.830862</dc:date>
    <dc:format>image/svg+xml</dc:format>
    <dc:creator>
     <cc:Agent>
      <dc:title>Matplotlib v3.9.0, https://matplotlib.org/</dc:title>
     </cc:Agent>
    </dc:creator>
   </cc:Work>
  </rdf:RDF>
 </metadata>
 <defs>
  <style type="text/css">*{stroke-linejoin: round; stroke-linecap: butt}</style>
 </defs>
 <g id="figure_1">
  <g id="patch_1">
   <path d="M 0 1000.8 
L 856.8 1000.8 
L 856.8 0 
L 0 0 
z
" style="fill: #ffffff"/>
  </g>
  <g id="axes_1">
   <g id="patch_2">
    <path d="M 350.8992 166.9968 
L 505.9008 166.9968 
Q 514.3248 166.9968 514.3248 157.1328 
L 514.3248 133.4592 
Q 514.3248 123.5952 505.9008 123.5952 
L 350.8992 123.5952 
Q 342.4752 123.5952 342.4752 133.4592 
L 342.4752 157.1328 
Q 342.4752 166.9968 350.8992 166.9968 
z
" clip-path="url(#pd2624cb32e)" style="fill: #ebf8ff; stroke: #90cdf4; stroke-width: 2; stroke-linejoin: miter"/>
   </g>
   <g id="patch_3">
    <path d="M 350.8992 245.9088 
L 505.9008 245.9088 
Q 514.3248 245.9088 514.3248 236.0448 
L 514.3248 212.3712 
Q 514.3248 202.5072 505.9008 202.5072 
L 350.8992 202.5072 
Q 342.4752 202.5072 342.4752 212.3712 
L 342.4752 236.0448 
Q 342.4752 245.9088 350.8992 245.9088 
z
" clip-path="url(#pd2624cb32e)" style="fill: #f0fff4; stroke: #9ae6b4; stroke-width: 2; stroke-linejoin: miter"/>
   </g>
   <g id="patch_4">
    <path d="M 350.8992 324.8208 
L 505.9008 324.8208 
Q 514.3248 324.8208 514.3248 314.9568 
L 514.3248 291.2832 
Q 514.3248 281.4192 505.9008 281.4192 
L 350.8992 281.4192 
Q 342.4752 281.4192 342.4752 291.2832 
L 342.4752 314.9568 
Q 342.4752 324.8208 350.8992 324.8208 
z
" clip-path="url(#pd2624cb32e)" style="fill: #fffff0; stroke: #faf089; stroke-width: 2; stroke-linejoin: miter"/>
   </g>
   <g id="patch_5">
    <path d="M 350.8992 403.7328 
L 505.9008 403.7328 
Q 514.3248 403.7328 514.3248 393.8688 
L 514.3248 370.1952 
Q 514.3248 360.3312 505.9008 360.3312 
L 350.8992 360.3312 
Q 342.4752 360.3312 342.4752 370.1952 
L 342.4752 393.8688 
Q 342.4752 403.7328 350.8992 403.7328 
z
" clip-path="url(#pd2624cb32e)" style="fill: #faf5ff; stroke: #d6bcfa; stroke-width: 2; stroke-linejoin: miter"/>
   </g>
   <g id="patch_6">
    <path d="M 182.4192 482.6448 
L 337.4208 482.6448 
Q 345.8448 482.6448 345.8448 472.7808 
L 345.8448 449.1072 
Q 345.8448 439.2432 337.4208 439.2432 
L 182.4192 439.2432 
Q 173.9952 439.2432 173.9952 449.1072 
L 173.9952 472.7808 
Q 173.9952 482.6448 182.4192 482.6448 
z
" clip-path="url(#pd2624cb32e)" style="fill: #fed7d7; stroke: #feb2b2; stroke-width: 2; stroke-linejoin: miter"/>
   </g>
   <g id="patch_7">
    <path d="M 519.3792 482.6448 
L 674.3808 482.6448 
Q 682.8048 482.6448 682.8048 472.7808 
L 682.8048 449.1072 
Q 682.8048 439.2432 674.3808 439.2432 
L 519.3792 439.2432 
Q 510.9552 439.2432 510.9552 449.1072 
L 510.9552 472.7808 
Q 510.9552 482.6448 519.3792 482.6448 
z
" clip-path="url(#pd2624cb32e)" style="fill: #fed7d7; stroke: #feb2b2; stroke-width: 2; stroke-linejoin: miter"/>
   </g>
   <g id="patch_8">
    <path d="M 350.8992 561.5568 
L 505.9008 561.5568 
Q 514.3248 561.5568 514.3248 551.6928 
L 514.3248 528.0192 
Q 514.3248 518.1552 505.9008 518.1552 
L 350.8992 518.1552 
Q 342.4752 518.1552 342.4752 528.0192 
L 342.4752 551.6928 
Q 342.4752 561.5568 350.8992 561.5568 
z
" clip-path="url(#pd2624cb32e)" style="fill: #faf5ff; stroke: #d6bcfa; stroke-width: 2; stroke-linejoin: miter"/>
   </g>
   <g id="patch_9">
    <path d="M 350.8992 640.4688 
L 505.9008 640.4688 
Q 514.3248 640.4688 514.3248 630.6048 
L 514.3248 606.9312 
Q 514.3248 597.0672 505.9008 597.0672 
L 350.8992 597.0672 
Q 342.4752 597.0672 342.4752 606.9312 
L 342.4752 630.6048 
Q 342.4752 640.4688 350.8992 640.4688 
z
" clip-path="url(#pd2624cb32e)" style="fill: #feebc8; stroke: #fbd38d; stroke-width: 2; stroke-linejoin: miter"/>
   </g>
   <g id="patch_10">
    <path d="M 334.0512 719.3808 
L 522.7488 719.3808 
Q 531.1728 719.3808 531.1728 709.5168 
L 531.1728 685.8432 
Q 531.1728 675.9792 522.7488 675.9792 
L 334.0512 675.9792 
Q 325.6272 675.9792 325.6272 685.8432 
L 325.6272 709.5168 
Q 325.6272 719.3808 334.0512 719.3808 
z
" clip-path="url(#pd2624cb32e)" style="fill: #faf5ff; stroke: #d6bcfa; stroke-width: 2; stroke-linejoin: miter"/>
   </g>
   <g id="patch_11">
    <path d="M 334.0512 798.2928 
L 522.7488 798.2928 
Q 531.1728 798.2928 531.1728 788.4288 
L 531.1728 764.7552 
Q 531.1728 754.8912 522.7488 754.8912 
L 334.0512 754.8912 
Q 325.6272 754.8912 325.6272 764.7552 
L 325.6272 788.4288 
Q 325.6272 798.2928 334.0512 798.2928 
z
" clip-path="url(#pd2624cb32e)" style="fill: #faf5ff; stroke: #d6bcfa; stroke-width: 2; stroke-linejoin: miter"/>
   </g>
   <g id="patch_12">
    <path d="M 350.8992 877.2048 
L 505.9008 877.2048 
Q 514.3248 877.2048 514.3248 867.3408 
L 514.3248 843.6672 
Q 514.3248 833.8032 505.9008 833.8032 
L 350.8992 833.8032 
Q 342.4752 833.8032 342.4752 843.6672 
L 342.4752 867.3408 
Q 342.4752 877.2048 350.8992 877.2048 
z
" clip-path="url(#pd2624cb32e)" style="fill: #ebf8ff; stroke: #90cdf4; stroke-width: 2; stroke-linejoin: miter"/>
   </g>
   <g id="patch_13">
    <path d="M 56.0592 166.9968 
L 211.0608 166.9968 
Q 219.4848 166.9968 219.4848 157.1328 
L 219.4848 133.4592 
Q 219.4848 123.5952 211.0608 123.5952 
L 56.0592 123.5952 
Q 47.6352 123.5952 47.6352 133.4592 
L 47.6352 157.1328 
Q 47.6352 166.9968 56.0592 166.9968 
z
" clip-path="url(#pd2624cb32e)" style="fill: #ebf8ff; stroke: #90cdf4; stroke-width: 2; stroke-linejoin: miter"/>
   </g>
   <g id="patch_14">
    <path d="M 56.0592 236.0448 
L 211.0608 236.0448 
Q 219.4848 236.0448 219.4848 226.1808 
L 219.4848 202.5072 
Q 219.4848 192.6432 211.0608 192.6432 
L 56.0592 192.6432 
Q 47.6352 192.6432 47.6352 202.5072 
L 47.6352 226.1808 
Q 47.6352 236.0448 56.0592 236.0448 
z
" clip-path="url(#pd2624cb32e)" style="fill: #e2e8f0; stroke: #cbd5e0; stroke-width: 2; stroke-linejoin: miter"/>
   </g>
   <g id="patch_15">
    <path d="M 56.0592 305.0928 
L 211.0608 305.0928 
Q 219.4848 305.0928 219.4848 295.2288 
L 219.4848 271.5552 
Q 219.4848 261.6912 211.0608 261.6912 
L 56.0592 261.6912 
Q 47.6352 261.6912 47.6352 271.5552 
L 47.6352 295.2288 
Q 47.6352 305.0928 56.0592 305.0928 
z
" clip-path="url(#pd2624cb32e)" style="fill: #e2e8f0; stroke: #cbd5e0; stroke-width: 2; stroke-linejoin: miter"/>
   </g>
   <g id="patch_16">
    <path d="M 56.0592 374.1408 
L 211.0608 374.1408 
Q 219.4848 374.1408 219.4848 364.2768 
L 219.4848 340.6032 
Q 219.4848 330.7392 211.0608 330.7392 
L 56.0592 330.7392 
Q 47.6352 330.7392 47.6352 340.6032 
L 47.6352 364.2768 
Q 47.6352 374.1408 56.0592 374.1408 
z
" clip-path="url(#pd2624cb32e)" style="fill: #e2e8f0; stroke: #cbd5e0; stroke-width: 2; stroke-linejoin: miter"/>
   </g>
   <g id="patch_17">
    <path d="M 56.0592 443.1888 
L 211.0608 443.1888 
Q 219.4848 443.1888 219.4848 433.3248 
L 219.4848 409.6512 
Q 219.4848 399.7872 211.0608 399.7872 
L 56.0592 399.7872 
Q 47.6352 399.7872 47.6352 409.6512 
L 47.6352 433.3248 
Q 47.6352 443.1888 56.0592 443.1888 
z
" clip-path="url(#pd2624cb32e)" style="fill: #e2e8f0; stroke: #cbd5e0; stroke-width: 2; stroke-linejoin: miter"/>
   </g>
   <g id="patch_18">
    <path d="M 56.0592 512.2368 
L 211.0608 512.2368 
Q 219.4848 512.2368 219.4848 502.3728 
L 219.4848 478.6992 
Q 219.4848 468.8352 211.0608 468.8352 
L 56.0592 468.8352 
Q 47.6352 468.8352 47.6352 478.6992 
L 47.6352 502.3728 
Q 47.6352 512.2368 56.0592 512.2368 
z
" clip-path="url(#pd2624cb32e)" style="fill: #e2e8f0; stroke: #cbd5e0; stroke-width: 2; stroke-linejoin: miter"/>
   </g>
   <g id="patch_19">
    <path d="M 56.0592 581.2848 
L 211.0608 581.2848 
Q 219.4848 581.2848 219.4848 571.4208 
L 219.4848 547.7472 
Q 219.4848 537.8832 211.0608 537.8832 
L 56.0592 537.8832 
Q 47.6352 537.8832 47.6352 547.7472 
L 47.6352 571.4208 
Q 47.6352 581.2848 56.0592 581.2848 
z
" clip-path="url(#pd2624cb32e)" style="fill: #e2e8f0; stroke: #cbd5e0; stroke-width: 2; stroke-linejoin: miter"/>
   </g>
   <g id="patch_20">
    <path d="M 687.8592 166.9968 
L 800.7408 166.9968 
Q 809.1648 166.9968 809.1648 157.1328 
L 809.1648 153.1872 
Q 809.1648 143.3232 800.7408 143.3232 
L 687.8592 143.3232 
Q 679.4352 143.3232 679.4352 153.1872 
L 679.4352 157.1328 
Q 679.4352 166.9968 687.8592 166.9968 
z
" clip-path="url(#pd2624cb32e)" style="fill: #f0fff4; stroke: #9ae6b4; stroke-width: 2; stroke-linejoin: miter"/>
   </g>
   <g id="patch_21">
    <path d="M 687.8592 206.4528 
L 800.7408 206.4528 
Q 809.1648 206.4528 809.1648 196.5888 
L 809.1648 192.6432 
Q 809.1648 182.7792 800.7408 182.7792 
L 687.8592 182.7792 
Q 679.4352 182.7792 679.4352 192.6432 
L 679.4352 196.5888 
Q 679.4352 206.4528 687.8592 206.4528 
z
" clip-path="url(#pd2624cb32e)" style="fill: #fffff0; stroke: #faf089; stroke-width: 2; stroke-linejoin: miter"/>
   </g>
   <g id="patch_22">
    <path d="M 687.8592 245.9088 
L 800.7408 245.9088 
Q 809.1648 245.9088 809.1648 236.0448 
L 809.1648 232.0992 
Q 809.1648 222.2352 800.7408 222.2352 
L 687.8592 222.2352 
Q 679.4352 222.2352 679.4352 232.0992 
L 679.4352 236.0448 
Q 679.4352 245.9088 687.8592 245.9088 
z
" clip-path="url(#pd2624cb32e)" style="fill: #faf5ff; stroke: #d6bcfa; stroke-width: 2; stroke-linejoin: miter"/>
   </g>
   <g id="patch_23">
    <path d="M 687.8592 285.3648 
L 800.7408 285.3648 
Q 809.1648 285.3648 809.1648 275.5008 
L 809.1648 271.5552 
Q 809.1648 261.6912 800.7408 261.6912 
L 687.8592 261.6912 
Q 679.4352 261.6912 679.4352 271.5552 
L 679.4352 275.5008 
Q 679.4352 285.3648 687.8592 285.3648 
z
" clip-path="url(#pd2624cb32e)" style="fill: #fed7d7; stroke: #feb2b2; stroke-width: 2; stroke-linejoin: miter"/>
   </g>
   <g id="text_1">
    <!-- ShorthillsAI Legal RAG Platform Architecture -->
    <g style="fill: #2d3748" transform="translate(200.805469 46.656) scale(0.18 -0.18)">
     <defs>
      <path id="DejaVuSans-Bold-53" d="M 3834 4519 
L 3834 3531 
Q 3450 3703 3084 3790 
Q 2719 3878 2394 3878 
Q 1963 3878 1756 3759 
Q 1550 3641 1550 3391 
Q 1550 3203 1689 3098 
Q 1828 2994 2194 2919 
L 2706 2816 
Q 3484 2659 3812 2340 
Q 4141 2022 4141 1434 
Q 4141 663 3683 286 
Q 3225 -91 2284 -91 
Q 1841 -91 1394 -6 
Q 947 78 500 244 
L 500 1259 
Q 947 1022 1364 901 
Q 1781 781 2169 781 
Q 2563 781 2772 912 
Q 2981 1044 2981 1288 
Q 2981 1506 2839 1625 
Q 2697 1744 2272 1838 
L 1806 1941 
Q 1106 2091 782 2419 
Q 459 2747 459 3303 
Q 459 4000 909 4375 
Q 1359 4750 2203 4750 
Q 2588 4750 2994 4692 
Q 3400 4634 3834 4519 
z
" transform="scale(0.015625)"/>
      <path id="DejaVuSans-Bold-68" d="M 4056 2131 
L 4056 0 
L 2931 0 
L 2931 347 
L 2931 1625 
Q 2931 2084 2911 2256 
Q 2891 2428 2841 2509 
Q 2775 2619 2662 2680 
Q 2550 2741 2406 2741 
Q 2056 2741 1856 2470 
Q 1656 2200 1656 1722 
L 1656 0 
L 538 0 
L 538 4863 
L 1656 4863 
L 1656 2988 
Q 1909 3294 2193 3439 
Q 2478 3584 2822 3584 
Q 3428 3584 3742 3212 
Q 4056 2841 4056 2131 
z
" transform="scale(0.015625)"/>
      <path id="DejaVuSans-Bold-6f" d="M 2203 2784 
Q 1831 2784 1636 2517 
Q 1441 2250 1441 1747 
Q 1441 1244 1636 976 
Q 1831 709 2203 709 
Q 2569 709 2762 976 
Q 2956 1244 2956 1747 
Q 2956 2250 2762 2517 
Q 2569 2784 2203 2784 
z
M 2203 3584 
Q 3106 3584 3614 3096 
Q 4122 2609 4122 1747 
Q 4122 884 3614 396 
Q 3106 -91 2203 -91 
Q 1297 -91 786 396 
Q 275 884 275 1747 
Q 275 2609 786 3096 
Q 1297 3584 2203 3584 
z
" transform="scale(0.015625)"/>
      <path id="DejaVuSans-Bold-72" d="M 3138 2547 
Q 2991 2616 2845 2648 
Q 2700 2681 2553 2681 
Q 2122 2681 1889 2404 
Q 1656 2128 1656 1613 
L 1656 0 
L 538 0 
L 538 3500 
L 1656 3500 
L 1656 2925 
Q 1872 3269 2151 3426 
Q 2431 3584 2822 3584 
Q 2878 3584 2943 3579 
Q 3009 3575 3134 3559 
L 3138 2547 
z
" transform="scale(0.015625)"/>
      <path id="DejaVuSans-Bold-74" d="M 1759 4494 
L 1759 3500 
L 2913 3500 
L 2913 2700 
L 1759 2700 
L 1759 1216 
Q 1759 972 1856 886 
Q 1953 800 2241 800 
L 2816 800 
L 2816 0 
L 1856 0 
Q 1194 0 917 276 
Q 641 553 641 1216 
L 641 2700 
L 84 2700 
L 84 3500 
L 641 3500 
L 641 4494 
L 1759 4494 
z
" transform="scale(0.015625)"/>
      <path id="DejaVuSans-Bold-69" d="M 538 3500 
L 1656 3500 
L 1656 0 
L 538 0 
L 538 3500 
z
M 538 4863 
L 1656 4863 
L 1656 3950 
L 538 3950 
L 538 4863 
z
" transform="scale(0.015625)"/>
      <path id="DejaVuSans-Bold-6c" d="M 538 4863 
L 1656 4863 
L 1656 0 
L 538 0 
L 538 4863 
z
" transform="scale(0.015625)"/>
      <path id="DejaVuSans-Bold-73" d="M 3272 3391 
L 3272 2541 
Q 2913 2691 2578 2766 
Q 2244 2841 1947 2841 
Q 1628 2841 1473 2761 
Q 1319 2681 1319 2516 
Q 1319 2381 1436 2309 
Q 1553 2238 1856 2203 
L 2053 2175 
Q 2913 2066 3209 1816 
Q 3506 1566 3506 1031 
Q 3506 472 3093 190 
Q 2681 -91 1863 -91 
Q 1516 -91 1145 -36 
Q 775 19 384 128 
L 384 978 
Q 719 816 1070 734 
Q 1422 653 1784 653 
Q 2113 653 2278 743 
Q 2444 834 2444 1013 
Q 2444 1163 2330 1236 
Q 2216 1309 1875 1350 
L 1678 1375 
Q 931 1469 631 1722 
Q 331 1975 331 2491 
Q 331 3047 712 3315 
Q 1094 3584 1881 3584 
Q 2191 3584 2531 3537 
Q 2872 3491 3272 3391 
z
" transform="scale(0.015625)"/>
      <path id="DejaVuSans-Bold-41" d="M 3419 850 
L 1538 850 
L 1241 0 
L 31 0 
L 1759 4666 
L 3194 4666 
L 4922 0 
L 3713 0 
L 3419 850 
z
M 1838 1716 
L 3116 1716 
L 2478 3572 
L 1838 1716 
z
" transform="scale(0.015625)"/>
      <path id="DejaVuSans-Bold-49" d="M 588 4666 
L 1791 4666 
L 1791 0 
L 588 0 
L 588 4666 
z
" transform="scale(0.015625)"/>
      <path id="DejaVuSans-Bold-20" transform="scale(0.015625)"/>
      <path id="DejaVuSans-Bold-4c" d="M 588 4666 
L 1791 4666 
L 1791 909 
L 3903 909 
L 3903 0 
L 588 0 
L 588 4666 
z
" transform="scale(0.015625)"/>
      <path id="DejaVuSans-Bold-65" d="M 4031 1759 
L 4031 1441 
L 1416 1441 
Q 1456 1047 1700 850 
Q 1944 653 2381 653 
Q 2734 653 3104 758 
Q 3475 863 3866 1075 
L 3866 213 
Q 3469 63 3072 -14 
Q 2675 -91 2278 -91 
Q 1328 -91 801 392 
Q 275 875 275 1747 
Q 275 2603 792 3093 
Q 1309 3584 2216 3584 
Q 3041 3584 3536 3087 
Q 4031 2591 4031 1759 
z
M 2881 2131 
Q 2881 2450 2695 2645 
Q 2509 2841 2209 2841 
Q 1884 2841 1681 2658 
Q 1478 2475 1428 2131 
L 2881 2131 
z
" transform="scale(0.015625)"/>
      <path id="DejaVuSans-Bold-67" d="M 2919 594 
Q 2688 288 2409 144 
Q 2131 0 1766 0 
Q 1125 0 706 504 
Q 288 1009 288 1791 
Q 288 2575 706 3076 
Q 1125 3578 1766 3578 
Q 2131 3578 2409 3434 
Q 2688 3291 2919 2981 
L 2919 3500 
L 4044 3500 
L 4044 353 
Q 4044 -491 3511 -936 
Q 2978 -1381 1966 -1381 
Q 1638 -1381 1331 -1331 
Q 1025 -1281 716 -1178 
L 716 -306 
Q 1009 -475 1290 -558 
Q 1572 -641 1856 -641 
Q 2406 -641 2662 -400 
Q 2919 -159 2919 353 
L 2919 594 
z
M 2181 2772 
Q 1834 2772 1640 2515 
Q 1447 2259 1447 1791 
Q 1447 1309 1634 1061 
Q 1822 813 2181 813 
Q 2531 813 2725 1069 
Q 2919 1325 2919 1791 
Q 2919 2259 2725 2515 
Q 2531 2772 2181 2772 
z
" transform="scale(0.015625)"/>
      <path id="DejaVuSans-Bold-61" d="M 2106 1575 
Q 1756 1575 1579 1456 
Q 1403 1338 1403 1106 
Q 1403 894 1545 773 
Q 1688 653 1941 653 
Q 2256 653 2472 879 
Q 2688 1106 2688 1447 
L 2688 1575 
L 2106 1575 
z
M 3816 1997 
L 3816 0 
L 2688 0 
L 2688 519 
Q 2463 200 2181 54 
Q 1900 -91 1497 -91 
Q 953 -91 614 226 
Q 275 544 275 1050 
Q 275 1666 698 1953 
Q 1122 2241 2028 2241 
L 2688 2241 
L 2688 2328 
Q 2688 2594 2478 2717 
Q 2269 2841 1825 2841 
Q 1466 2841 1156 2769 
Q 847 2697 581 2553 
L 581 3406 
Q 941 3494 1303 3539 
Q 1666 3584 2028 3584 
Q 2975 3584 3395 3211 
Q 3816 2838 3816 1997 
z
" transform="scale(0.015625)"/>
      <path id="DejaVuSans-Bold-52" d="M 2297 2597 
Q 2675 2597 2839 2737 
Q 3003 2878 3003 3200 
Q 3003 3519 2839 3656 
Q 2675 3794 2297 3794 
L 1791 3794 
L 1791 2597 
L 2297 2597 
z
M 1791 1766 
L 1791 0 
L 588 0 
L 588 4666 
L 2425 4666 
Q 3347 4666 3776 4356 
Q 4206 4047 4206 3378 
Q 4206 2916 3982 2619 
Q 3759 2322 3309 2181 
Q 3556 2125 3751 1926 
Q 3947 1728 4147 1325 
L 4800 0 
L 3519 0 
L 2950 1159 
Q 2778 1509 2601 1637 
Q 2425 1766 2131 1766 
L 1791 1766 
z
" transform="scale(0.015625)"/>
      <path id="DejaVuSans-Bold-47" d="M 4781 347 
Q 4331 128 3847 18 
Q 3363 -91 2847 -91 
Q 1681 -91 1000 561 
Q 319 1213 319 2328 
Q 319 3456 1012 4103 
Q 1706 4750 2913 4750 
Q 3378 4750 3804 4662 
Q 4231 4575 4609 4403 
L 4609 3438 
Q 4219 3659 3833 3768 
Q 3447 3878 3059 3878 
Q 2341 3878 1952 3476 
Q 1563 3075 1563 2328 
Q 1563 1588 1938 1184 
Q 2313 781 3003 781 
Q 3191 781 3352 804 
Q 3513 828 3641 878 
L 3641 1784 
L 2906 1784 
L 2906 2591 
L 4781 2591 
L 4781 347 
z
" transform="scale(0.015625)"/>
      <path id="DejaVuSans-Bold-50" d="M 588 4666 
L 2584 4666 
Q 3475 4666 3951 4270 
Q 4428 3875 4428 3144 
Q 4428 2409 3951 2014 
Q 3475 1619 2584 1619 
L 1791 1619 
L 1791 0 
L 588 0 
L 588 4666 
z
M 1791 3794 
L 1791 2491 
L 2456 2491 
Q 2806 2491 2997 2661 
Q 3188 2831 3188 3144 
Q 3188 3456 2997 3625 
Q 2806 3794 2456 3794 
L 1791 3794 
z
" transform="scale(0.015625)"/>
      <path id="DejaVuSans-Bold-66" d="M 2841 4863 
L 2841 4128 
L 2222 4128 
Q 1984 4128 1890 4042 
Q 1797 3956 1797 3744 
L 1797 3500 
L 2753 3500 
L 2753 2700 
L 1797 2700 
L 1797 0 
L 678 0 
L 678 2700 
L 122 2700 
L 122 3500 
L 678 3500 
L 678 3744 
Q 678 4316 997 4589 
Q 1316 4863 1984 4863 
L 2841 4863 
z
" transform="scale(0.015625)"/>
      <path id="DejaVuSans-Bold-6d" d="M 3781 2919 
Q 3994 3244 4286 3414 
Q 4578 3584 4928 3584 
Q 5531 3584 5847 3212 
Q 6163 2841 6163 2131 
L 6163 0 
L 5038 0 
L 5038 1825 
Q 5041 1866 5042 1909 
Q 5044 1953 5044 2034 
Q 5044 2406 4934 2573 
Q 4825 2741 4581 2741 
Q 4263 2741 4089 2478 
Q 3916 2216 3909 1719 
L 3909 0 
L 2784 0 
L 2784 1825 
Q 2784 2406 2684 2573 
Q 2584 2741 2328 2741 
Q 2006 2741 1831 2477 
Q 1656 2213 1656 1722 
L 1656 0 
L 531 0 
L 531 3500 
L 1656 3500 
L 1656 2988 
Q 1863 3284 2130 3434 
Q 2397 3584 2719 3584 
Q 3081 3584 3359 3409 
Q 3638 3234 3781 2919 
z
" transform="scale(0.015625)"/>
      <path id="DejaVuSans-Bold-63" d="M 3366 3391 
L 3366 2478 
Q 3138 2634 2908 2709 
Q 2678 2784 2431 2784 
Q 1963 2784 1702 2511 
Q 1441 2238 1441 1747 
Q 1441 1256 1702 982 
Q 1963 709 2431 709 
Q 2694 709 2930 787 
Q 3166 866 3366 1019 
L 3366 103 
Q 3103 6 2833 -42 
Q 2563 -91 2291 -91 
Q 1344 -91 809 395 
Q 275 881 275 1747 
Q 275 2613 809 3098 
Q 1344 3584 2291 3584 
Q 2566 3584 2833 3536 
Q 3100 3488 3366 3391 
z
" transform="scale(0.015625)"/>
      <path id="DejaVuSans-Bold-75" d="M 500 1363 
L 500 3500 
L 1625 3500 
L 1625 3150 
Q 1625 2866 1622 2436 
Q 1619 2006 1619 1863 
Q 1619 1441 1641 1255 
Q 1663 1069 1716 984 
Q 1784 875 1895 815 
Q 2006 756 2150 756 
Q 2500 756 2700 1025 
Q 2900 1294 2900 1772 
L 2900 3500 
L 4019 3500 
L 4019 0 
L 2900 0 
L 2900 506 
Q 2647 200 2364 54 
Q 2081 -91 1741 -91 
Q 1134 -91 817 281 
Q 500 653 500 1363 
z
" transform="scale(0.015625)"/>
     </defs>
     <use xlink:href="#DejaVuSans-Bold-53"/>
     <use xlink:href="#DejaVuSans-Bold-68" x="72.021484"/>
     <use xlink:href="#DejaVuSans-Bold-6f" x="143.212891"/>
     <use xlink:href="#DejaVuSans-Bold-72" x="211.914062"/>
     <use xlink:href="#DejaVuSans-Bold-74" x="261.230469"/>
     <use xlink:href="#DejaVuSans-Bold-68" x="309.033203"/>
     <use xlink:href="#DejaVuSans-Bold-69" x="380.224609"/>
     <use xlink:href="#DejaVuSans-Bold-6c" x="414.501953"/>
     <use xlink:href="#DejaVuSans-Bold-6c" x="448.779297"/>
     <use xlink:href="#DejaVuSans-Bold-73" x="483.056641"/>
     <use xlink:href="#DejaVuSans-Bold-41" x="542.578125"/>
     <use xlink:href="#DejaVuSans-Bold-49" x="619.970703"/>
     <use xlink:href="#DejaVuSans-Bold-20" x="657.177734"/>
     <use xlink:href="#DejaVuSans-Bold-4c" x="691.992188"/>
     <use xlink:href="#DejaVuSans-Bold-65" x="755.712891"/>
     <use xlink:href="#DejaVuSans-Bold-67" x="823.535156"/>
     <use xlink:href="#DejaVuSans-Bold-61" x="895.117188"/>
     <use xlink:href="#DejaVuSans-Bold-6c" x="962.597656"/>
     <use xlink:href="#DejaVuSans-Bold-20" x="996.875"/>
     <use xlink:href="#DejaVuSans-Bold-52" x="1031.689453"/>
     <use xlink:href="#DejaVuSans-Bold-41" x="1108.691406"/>
     <use xlink:href="#DejaVuSans-Bold-47" x="1186.083984"/>
     <use xlink:href="#DejaVuSans-Bold-20" x="1268.164062"/>
     <use xlink:href="#DejaVuSans-Bold-50" x="1302.978516"/>
     <use xlink:href="#DejaVuSans-Bold-6c" x="1376.269531"/>
     <use xlink:href="#DejaVuSans-Bold-61" x="1410.546875"/>
     <use xlink:href="#DejaVuSans-Bold-74" x="1478.027344"/>
     <use xlink:href="#DejaVuSans-Bold-66" x="1525.830078"/>
     <use xlink:href="#DejaVuSans-Bold-6f" x="1569.335938"/>
     <use xlink:href="#DejaVuSans-Bold-72" x="1638.037109"/>
     <use xlink:href="#DejaVuSans-Bold-6d" x="1687.353516"/>
     <use xlink:href="#DejaVuSans-Bold-20" x="1791.552734"/>
     <use xlink:href="#DejaVuSans-Bold-41" x="1826.367188"/>
     <use xlink:href="#DejaVuSans-Bold-72" x="1903.759766"/>
     <use xlink:href="#DejaVuSans-Bold-63" x="1953.076172"/>
     <use xlink:href="#DejaVuSans-Bold-68" x="2012.353516"/>
     <use xlink:href="#DejaVuSans-Bold-69" x="2083.544922"/>
     <use xlink:href="#DejaVuSans-Bold-74" x="2117.822266"/>
     <use xlink:href="#DejaVuSans-Bold-65" x="2165.625"/>
     <use xlink:href="#DejaVuSans-Bold-63" x="2233.447266"/>
     <use xlink:href="#DejaVuSans-Bold-74" x="2292.724609"/>
     <use xlink:href="#DejaVuSans-Bold-75" x="2340.527344"/>
     <use xlink:href="#DejaVuSans-Bold-72" x="2411.71875"/>
     <use xlink:href="#DejaVuSans-Bold-65" x="2461.035156"/>
    </g>
   </g>
   <g id="text_2">
    <!-- Online Query Pipeline -->
    <g transform="translate(342.545 105.84) scale(0.14 -0.14)">
     <defs>
      <path id="DejaVuSans-Bold-4f" d="M 2719 3878 
Q 2169 3878 1866 3472 
Q 1563 3066 1563 2328 
Q 1563 1594 1866 1187 
Q 2169 781 2719 781 
Q 3272 781 3575 1187 
Q 3878 1594 3878 2328 
Q 3878 3066 3575 3472 
Q 3272 3878 2719 3878 
z
M 2719 4750 
Q 3844 4750 4481 4106 
Q 5119 3463 5119 2328 
Q 5119 1197 4481 553 
Q 3844 -91 2719 -91 
Q 1597 -91 958 553 
Q 319 1197 319 2328 
Q 319 3463 958 4106 
Q 1597 4750 2719 4750 
z
" transform="scale(0.015625)"/>
      <path id="DejaVuSans-Bold-6e" d="M 4056 2131 
L 4056 0 
L 2931 0 
L 2931 347 
L 2931 1631 
Q 2931 2084 2911 2256 
Q 2891 2428 2841 2509 
Q 2775 2619 2662 2680 
Q 2550 2741 2406 2741 
Q 2056 2741 1856 2470 
Q 1656 2200 1656 1722 
L 1656 0 
L 538 0 
L 538 3500 
L 1656 3500 
L 1656 2988 
Q 1909 3294 2193 3439 
Q 2478 3584 2822 3584 
Q 3428 3584 3742 3212 
Q 4056 2841 4056 2131 
z
" transform="scale(0.015625)"/>
      <path id="DejaVuSans-Bold-51" d="M 2847 -84 
L 2753 -84 
Q 1600 -84 959 553 
Q 319 1191 319 2328 
Q 319 3463 958 4106 
Q 1597 4750 2719 4750 
Q 3853 4750 4486 4112 
Q 5119 3475 5119 2328 
Q 5119 1541 4783 972 
Q 4447 403 3816 116 
L 4756 -934 
L 3609 -934 
L 2847 -84 
z
M 2719 3878 
Q 2169 3878 1866 3472 
Q 1563 3066 1563 2328 
Q 1563 1578 1859 1179 
Q 2156 781 2719 781 
Q 3272 781 3575 1187 
Q 3878 1594 3878 2328 
Q 3878 3066 3575 3472 
Q 3272 3878 2719 3878 
z
" transform="scale(0.015625)"/>
      <path id="DejaVuSans-Bold-79" d="M 78 3500 
L 1197 3500 
L 2138 1125 
L 2938 3500 
L 4056 3500 
L 2584 -331 
Q 2363 -916 2067 -1148 
Q 1772 -1381 1288 -1381 
L 641 -1381 
L 641 -647 
L 991 -647 
Q 1275 -647 1404 -556 
Q 1534 -466 1606 -231 
L 1638 -134 
L 78 3500 
z
" transform="scale(0.015625)"/>
      <path id="DejaVuSans-Bold-70" d="M 1656 506 
L 1656 -1331 
L 538 -1331 
L 538 3500 
L 1656 3500 
L 1656 2988 
Q 1888 3294 2169 3439 
Q 2450 3584 2816 3584 
Q 3463 3584 3878 3070 
Q 4294 2556 4294 1747 
Q 4294 938 3878 423 
Q 3463 -91 2816 -91 
Q 2450 -91 2169 54 
Q 1888 200 1656 506 
z
M 2400 2772 
Q 2041 2772 1848 2508 
Q 1656 2244 1656 1747 
Q 1656 1250 1848 986 
Q 2041 722 2400 722 
Q 2759 722 2948 984 
Q 3138 1247 3138 1747 
Q 3138 2247 2948 2509 
Q 2759 2772 2400 2772 
z
" transform="scale(0.015625)"/>
     </defs>
     <use xlink:href="#DejaVuSans-Bold-4f"/>
     <use xlink:href="#DejaVuSans-Bold-6e" x="85.009766"/>
     <use xlink:href="#DejaVuSans-Bold-6c" x="156.201172"/>
     <use xlink:href="#DejaVuSans-Bold-69" x="190.478516"/>
     <use xlink:href="#DejaVuSans-Bold-6e" x="224.755859"/>
     <use xlink:href="#DejaVuSans-Bold-65" x="295.947266"/>
     <use xlink:href="#DejaVuSans-Bold-20" x="363.769531"/>
     <use xlink:href="#DejaVuSans-Bold-51" x="398.583984"/>
     <use xlink:href="#DejaVuSans-Bold-75" x="483.59375"/>
     <use xlink:href="#DejaVuSans-Bold-65" x="554.785156"/>
     <use xlink:href="#DejaVuSans-Bold-72" x="622.607422"/>
     <use xlink:href="#DejaVuSans-Bold-79" x="671.923828"/>
     <use xlink:href="#DejaVuSans-Bold-20" x="737.109375"/>
     <use xlink:href="#DejaVuSans-Bold-50" x="771.923828"/>
     <use xlink:href="#DejaVuSans-Bold-69" x="845.214844"/>
     <use xlink:href="#DejaVuSans-Bold-70" x="879.492188"/>
     <use xlink:href="#DejaVuSans-Bold-65" x="951.074219"/>
     <use xlink:href="#DejaVuSans-Bold-6c" x="1018.896484"/>
     <use xlink:href="#DejaVuSans-Bold-69" x="1053.173828"/>
     <use xlink:href="#DejaVuSans-Bold-6e" x="1087.451172"/>
     <use xlink:href="#DejaVuSans-Bold-65" x="1158.642578"/>
    </g>
   </g>
   <g id="text_3">
    <!-- User -->
    <g style="fill: #1a202c" transform="translate(414.217734 148.331312) scale(0.11 -0.11)">
     <defs>
      <path id="DejaVuSans-Bold-55" d="M 588 4666 
L 1791 4666 
L 1791 1869 
Q 1791 1291 1980 1042 
Q 2169 794 2597 794 
Q 3028 794 3217 1042 
Q 3406 1291 3406 1869 
L 3406 4666 
L 4609 4666 
L 4609 1869 
Q 4609 878 4112 393 
Q 3616 -91 2597 -91 
Q 1581 -91 1084 393 
Q 588 878 588 1869 
L 588 4666 
z
" transform="scale(0.015625)"/>
     </defs>
     <use xlink:href="#DejaVuSans-Bold-55"/>
     <use xlink:href="#DejaVuSans-Bold-73" x="81.201172"/>
     <use xlink:href="#DejaVuSans-Bold-65" x="140.722656"/>
     <use xlink:href="#DejaVuSans-Bold-72" x="208.544922"/>
    </g>
   </g>
   <g id="patch_24">
    <path d="M 429.4 165.024 
Q 429.4 178.753166 429.4 192.482332 
L 432.4 192.482332 
Q 430.4 198.481166 428.4 204.48 
Q 426.4 198.481166 424.4 192.482332 
L 427.4 192.482332 
Q 427.4 178.753166 427.4 165.024 
L 429.4 165.024 
z
" style="fill: #4a5568; stroke: #4a5568; stroke-linecap: round"/>
   </g>
   <g id="text_4">
    <!-- Streamlit UI -->
    <g style="fill: #1a202c" transform="translate(391.097969 227.243313) scale(0.11 -0.11)">
     <use xlink:href="#DejaVuSans-Bold-53"/>
     <use xlink:href="#DejaVuSans-Bold-74" x="72.021484"/>
     <use xlink:href="#DejaVuSans-Bold-72" x="119.824219"/>
     <use xlink:href="#DejaVuSans-Bold-65" x="169.140625"/>
     <use xlink:href="#DejaVuSans-Bold-61" x="236.962891"/>
     <use xlink:href="#DejaVuSans-Bold-6d" x="304.443359"/>
     <use xlink:href="#DejaVuSans-Bold-6c" x="408.642578"/>
     <use xlink:href="#DejaVuSans-Bold-69" x="442.919922"/>
     <use xlink:href="#DejaVuSans-Bold-74" x="477.197266"/>
     <use xlink:href="#DejaVuSans-Bold-20" x="525"/>
     <use xlink:href="#DejaVuSans-Bold-55" x="559.814453"/>
     <use xlink:href="#DejaVuSans-Bold-49" x="641.015625"/>
    </g>
   </g>
   <g id="patch_25">
    <path d="M 429.4 243.936 
Q 429.4 257.665166 429.4 271.394332 
L 432.4 271.394332 
Q 430.4 277.393166 428.4 283.392 
Q 426.4 277.393166 424.4 271.394332 
L 427.4 271.394332 
Q 427.4 257.665166 427.4 243.936 
L 429.4 243.936 
z
" style="fill: #4a5568; stroke: #4a5568; stroke-linecap: round"/>
   </g>
   <g id="text_5">
    <!-- FastAPI Backend -->
    <g style="fill: #1a202c" transform="translate(376.843516 306.155313) scale(0.11 -0.11)">
     <defs>
      <path id="DejaVuSans-Bold-46" d="M 588 4666 
L 3834 4666 
L 3834 3756 
L 1791 3756 
L 1791 2888 
L 3713 2888 
L 3713 1978 
L 1791 1978 
L 1791 0 
L 588 0 
L 588 4666 
z
" transform="scale(0.015625)"/>
      <path id="DejaVuSans-Bold-42" d="M 2456 2859 
Q 2741 2859 2887 2984 
Q 3034 3109 3034 3353 
Q 3034 3594 2887 3720 
Q 2741 3847 2456 3847 
L 1791 3847 
L 1791 2859 
L 2456 2859 
z
M 2497 819 
Q 2859 819 3042 972 
Q 3225 1125 3225 1434 
Q 3225 1738 3044 1889 
Q 2863 2041 2497 2041 
L 1791 2041 
L 1791 819 
L 2497 819 
z
M 3616 2497 
Q 4003 2384 4215 2081 
Q 4428 1778 4428 1338 
Q 4428 663 3972 331 
Q 3516 0 2584 0 
L 588 0 
L 588 4666 
L 2394 4666 
Q 3366 4666 3802 4372 
Q 4238 4078 4238 3431 
Q 4238 3091 4078 2852 
Q 3919 2613 3616 2497 
z
" transform="scale(0.015625)"/>
      <path id="DejaVuSans-Bold-6b" d="M 538 4863 
L 1656 4863 
L 1656 2216 
L 2944 3500 
L 4244 3500 
L 2534 1894 
L 4378 0 
L 3022 0 
L 1656 1459 
L 1656 0 
L 538 0 
L 538 4863 
z
" transform="scale(0.015625)"/>
      <path id="DejaVuSans-Bold-64" d="M 2919 2988 
L 2919 4863 
L 4044 4863 
L 4044 0 
L 2919 0 
L 2919 506 
Q 2688 197 2409 53 
Q 2131 -91 1766 -91 
Q 1119 -91 703 423 
Q 288 938 288 1747 
Q 288 2556 703 3070 
Q 1119 3584 1766 3584 
Q 2128 3584 2408 3439 
Q 2688 3294 2919 2988 
z
M 2181 722 
Q 2541 722 2730 984 
Q 2919 1247 2919 1747 
Q 2919 2247 2730 2509 
Q 2541 2772 2181 2772 
Q 1825 2772 1636 2509 
Q 1447 2247 1447 1747 
Q 1447 1247 1636 984 
Q 1825 722 2181 722 
z
" transform="scale(0.015625)"/>
     </defs>
     <use xlink:href="#DejaVuSans-Bold-46"/>
     <use xlink:href="#DejaVuSans-Bold-61" x="62.435547"/>
     <use xlink:href="#DejaVuSans-Bold-73" x="129.916016"/>
     <use xlink:href="#DejaVuSans-Bold-74" x="189.4375"/>
     <use xlink:href="#DejaVuSans-Bold-41" x="237.240234"/>
     <use xlink:href="#DejaVuSans-Bold-50" x="314.632812"/>
     <use xlink:href="#DejaVuSans-Bold-49" x="387.923828"/>
     <use xlink:href="#DejaVuSans-Bold-20" x="425.130859"/>
     <use xlink:href="#DejaVuSans-Bold-42" x="459.945312"/>
     <use xlink:href="#DejaVuSans-Bold-61" x="536.166016"/>
     <use xlink:href="#DejaVuSans-Bold-63" x="603.646484"/>
     <use xlink:href="#DejaVuSans-Bold-6b" x="662.923828"/>
     <use xlink:href="#DejaVuSans-Bold-65" x="726.802734"/>
     <use xlink:href="#DejaVuSans-Bold-6e" x="794.625"/>
     <use xlink:href="#DejaVuSans-Bold-64" x="865.816406"/>
    </g>
   </g>
   <g id="patch_26">
    <path d="M 429.4 322.848 
Q 429.4 336.577166 429.4 350.306332 
L 432.4 350.306332 
Q 430.4 356.305166 428.4 362.304 
Q 426.4 356.305166 424.4 350.306332 
L 427.4 350.306332 
Q 427.4 336.577166 427.4 322.848 
L 429.4 322.848 
z
" style="fill: #4a5568; stroke: #4a5568; stroke-linecap: round"/>
   </g>
   <g id="text_6">
    <!-- Hybrid Retrieval -->
    <g style="fill: #1a202c" transform="translate(377.720937 378.822578) scale(0.11 -0.11)">
     <defs>
      <path id="DejaVuSans-Bold-48" d="M 588 4666 
L 1791 4666 
L 1791 2888 
L 3566 2888 
L 3566 4666 
L 4769 4666 
L 4769 0 
L 3566 0 
L 3566 1978 
L 1791 1978 
L 1791 0 
L 588 0 
L 588 4666 
z
" transform="scale(0.015625)"/>
      <path id="DejaVuSans-Bold-62" d="M 2400 722 
Q 2759 722 2948 984 
Q 3138 1247 3138 1747 
Q 3138 2247 2948 2509 
Q 2759 2772 2400 2772 
Q 2041 2772 1848 2508 
Q 1656 2244 1656 1747 
Q 1656 1250 1848 986 
Q 2041 722 2400 722 
z
M 1656 2988 
Q 1888 3294 2169 3439 
Q 2450 3584 2816 3584 
Q 3463 3584 3878 3070 
Q 4294 2556 4294 1747 
Q 4294 938 3878 423 
Q 3463 -91 2816 -91 
Q 2450 -91 2169 54 
Q 1888 200 1656 506 
L 1656 0 
L 538 0 
L 538 4863 
L 1656 4863 
L 1656 2988 
z
" transform="scale(0.015625)"/>
      <path id="DejaVuSans-Bold-76" d="M 97 3500 
L 1216 3500 
L 2088 1081 
L 2956 3500 
L 4078 3500 
L 2700 0 
L 1472 0 
L 97 3500 
z
" transform="scale(0.015625)"/>
     </defs>
     <use xlink:href="#DejaVuSans-Bold-48"/>
     <use xlink:href="#DejaVuSans-Bold-79" x="83.691406"/>
     <use xlink:href="#DejaVuSans-Bold-62" x="148.876953"/>
     <use xlink:href="#DejaVuSans-Bold-72" x="220.458984"/>
     <use xlink:href="#DejaVuSans-Bold-69" x="269.775391"/>
     <use xlink:href="#DejaVuSans-Bold-64" x="304.052734"/>
     <use xlink:href="#DejaVuSans-Bold-20" x="375.634766"/>
     <use xlink:href="#DejaVuSans-Bold-52" x="410.449219"/>
     <use xlink:href="#DejaVuSans-Bold-65" x="487.451172"/>
     <use xlink:href="#DejaVuSans-Bold-74" x="555.273438"/>
     <use xlink:href="#DejaVuSans-Bold-72" x="603.076172"/>
     <use xlink:href="#DejaVuSans-Bold-69" x="652.392578"/>
     <use xlink:href="#DejaVuSans-Bold-65" x="686.669922"/>
     <use xlink:href="#DejaVuSans-Bold-76" x="754.492188"/>
     <use xlink:href="#DejaVuSans-Bold-61" x="819.677734"/>
     <use xlink:href="#DejaVuSans-Bold-6c" x="887.158203"/>
    </g>
    <!-- Engine -->
    <g style="fill: #1a202c" transform="translate(407.259375 391.226109) scale(0.11 -0.11)">
     <defs>
      <path id="DejaVuSans-Bold-45" d="M 588 4666 
L 3834 4666 
L 3834 3756 
L 1791 3756 
L 1791 2888 
L 3713 2888 
L 3713 1978 
L 1791 1978 
L 1791 909 
L 3903 909 
L 3903 0 
L 588 0 
L 588 4666 
z
" transform="scale(0.015625)"/>
     </defs>
     <use xlink:href="#DejaVuSans-Bold-45"/>
     <use xlink:href="#DejaVuSans-Bold-6e" x="68.310547"/>
     <use xlink:href="#DejaVuSans-Bold-67" x="139.501953"/>
     <use xlink:href="#DejaVuSans-Bold-69" x="211.083984"/>
     <use xlink:href="#DejaVuSans-Bold-6e" x="245.361328"/>
     <use xlink:href="#DejaVuSans-Bold-65" x="316.552734"/>
    </g>
   </g>
   <g id="patch_27">
    <path d="M 386.578058 402.714548 
Q 329.126445 420.653855 271.674832 438.593162 
L 272.569006 441.456805 
Q 266.244503 441.336403 259.92 441.216 
Q 265.05227 437.518212 270.184541 433.820423 
L 271.078715 436.684067 
Q 328.530329 418.744759 385.981942 400.805452 
L 386.578058 402.714548 
z
" style="fill: #4a5568; stroke: #4a5568; stroke-linecap: round"/>
   </g>
   <g id="patch_28">
    <path d="M 470.818058 400.805452 
Q 528.269671 418.744759 585.721285 436.684067 
L 586.615459 433.820423 
Q 591.74773 437.518212 596.88 441.216 
Q 590.555497 441.336403 584.230994 441.456805 
L 585.125168 438.593162 
Q 527.673555 420.653855 470.221942 402.714548 
L 470.818058 400.805452 
z
" style="fill: #4a5568; stroke: #4a5568; stroke-linecap: round"/>
   </g>
   <g id="text_7">
    <!-- Elasticsearch -->
    <g style="fill: #1a202c" transform="translate(218.914062 457.820516) scale(0.11 -0.11)">
     <use xlink:href="#DejaVuSans-Bold-45"/>
     <use xlink:href="#DejaVuSans-Bold-6c" x="68.310547"/>
     <use xlink:href="#DejaVuSans-Bold-61" x="102.587891"/>
     <use xlink:href="#DejaVuSans-Bold-73" x="170.068359"/>
     <use xlink:href="#DejaVuSans-Bold-74" x="229.589844"/>
     <use xlink:href="#DejaVuSans-Bold-69" x="277.392578"/>
     <use xlink:href="#DejaVuSans-Bold-63" x="311.669922"/>
     <use xlink:href="#DejaVuSans-Bold-73" x="370.947266"/>
     <use xlink:href="#DejaVuSans-Bold-65" x="430.46875"/>
     <use xlink:href="#DejaVuSans-Bold-61" x="498.291016"/>
     <use xlink:href="#DejaVuSans-Bold-72" x="565.771484"/>
     <use xlink:href="#DejaVuSans-Bold-63" x="615.087891"/>
     <use xlink:href="#DejaVuSans-Bold-68" x="674.365234"/>
    </g>
    <!-- (BM25) -->
    <g style="fill: #1a202c" transform="translate(237.573672 470.138109) scale(0.11 -0.11)">
     <defs>
      <path id="DejaVuSans-Bold-28" d="M 2413 -844 
L 1484 -844 
Q 1006 -72 778 623 
Q 550 1319 550 2003 
Q 550 2688 779 3389 
Q 1009 4091 1484 4856 
L 2413 4856 
Q 2013 4116 1813 3408 
Q 1613 2700 1613 2009 
Q 1613 1319 1811 609 
Q 2009 -100 2413 -844 
z
" transform="scale(0.015625)"/>
      <path id="DejaVuSans-Bold-4d" d="M 588 4666 
L 2119 4666 
L 3181 2169 
L 4250 4666 
L 5778 4666 
L 5778 0 
L 4641 0 
L 4641 3413 
L 3566 897 
L 2803 897 
L 1728 3413 
L 1728 0 
L 588 0 
L 588 4666 
z
" transform="scale(0.015625)"/>
      <path id="DejaVuSans-Bold-32" d="M 1844 884 
L 3897 884 
L 3897 0 
L 506 0 
L 506 884 
L 2209 2388 
Q 2438 2594 2547 2791 
Q 2656 2988 2656 3200 
Q 2656 3528 2436 3728 
Q 2216 3928 1850 3928 
Q 1569 3928 1234 3808 
Q 900 3688 519 3450 
L 519 4475 
Q 925 4609 1322 4679 
Q 1719 4750 2100 4750 
Q 2938 4750 3402 4381 
Q 3866 4013 3866 3353 
Q 3866 2972 3669 2642 
Q 3472 2313 2841 1759 
L 1844 884 
z
" transform="scale(0.015625)"/>
      <path id="DejaVuSans-Bold-35" d="M 678 4666 
L 3669 4666 
L 3669 3781 
L 1638 3781 
L 1638 3059 
Q 1775 3097 1914 3117 
Q 2053 3138 2203 3138 
Q 3056 3138 3531 2711 
Q 4006 2284 4006 1522 
Q 4006 766 3489 337 
Q 2972 -91 2053 -91 
Q 1656 -91 1267 -14 
Q 878 63 494 219 
L 494 1166 
Q 875 947 1217 837 
Q 1559 728 1863 728 
Q 2300 728 2551 942 
Q 2803 1156 2803 1522 
Q 2803 1891 2551 2103 
Q 2300 2316 1863 2316 
Q 1603 2316 1309 2248 
Q 1016 2181 678 2041 
L 678 4666 
z
" transform="scale(0.015625)"/>
      <path id="DejaVuSans-Bold-29" d="M 513 -844 
Q 913 -100 1113 609 
Q 1313 1319 1313 2009 
Q 1313 2700 1113 3408 
Q 913 4116 513 4856 
L 1441 4856 
Q 1916 4091 2145 3389 
Q 2375 2688 2375 2003 
Q 2375 1319 2147 623 
Q 1919 -72 1441 -844 
L 513 -844 
z
" transform="scale(0.015625)"/>
     </defs>
     <use xlink:href="#DejaVuSans-Bold-28"/>
     <use xlink:href="#DejaVuSans-Bold-42" x="45.703125"/>
     <use xlink:href="#DejaVuSans-Bold-4d" x="121.923828"/>
     <use xlink:href="#DejaVuSans-Bold-32" x="221.435547"/>
     <use xlink:href="#DejaVuSans-Bold-35" x="291.015625"/>
     <use xlink:href="#DejaVuSans-Bold-29" x="360.595703"/>
    </g>
   </g>
   <g id="text_8">
    <!-- Qdrant -->
    <g style="fill: #1a202c" transform="translate(575.299375 457.820516) scale(0.11 -0.11)">
     <use xlink:href="#DejaVuSans-Bold-51"/>
     <use xlink:href="#DejaVuSans-Bold-64" x="85.009766"/>
     <use xlink:href="#DejaVuSans-Bold-72" x="156.591797"/>
     <use xlink:href="#DejaVuSans-Bold-61" x="205.908203"/>
     <use xlink:href="#DejaVuSans-Bold-6e" x="273.388672"/>
     <use xlink:href="#DejaVuSans-Bold-74" x="344.580078"/>
    </g>
    <!-- (Dense Vector) -->
    <g style="fill: #1a202c" transform="translate(550.657656 470.138109) scale(0.11 -0.11)">
     <defs>
      <path id="DejaVuSans-Bold-44" d="M 1791 3756 
L 1791 909 
L 2222 909 
Q 2959 909 3348 1275 
Q 3738 1641 3738 2338 
Q 3738 3031 3350 3393 
Q 2963 3756 2222 3756 
L 1791 3756 
z
M 588 4666 
L 1856 4666 
Q 2919 4666 3439 4514 
Q 3959 4363 4331 4000 
Q 4659 3684 4818 3271 
Q 4978 2859 4978 2338 
Q 4978 1809 4818 1395 
Q 4659 981 4331 666 
Q 3956 303 3431 151 
Q 2906 0 1856 0 
L 588 0 
L 588 4666 
z
" transform="scale(0.015625)"/>
      <path id="DejaVuSans-Bold-56" d="M 31 4666 
L 1241 4666 
L 2478 1222 
L 3713 4666 
L 4922 4666 
L 3194 0 
L 1759 0 
L 31 4666 
z
" transform="scale(0.015625)"/>
     </defs>
     <use xlink:href="#DejaVuSans-Bold-28"/>
     <use xlink:href="#DejaVuSans-Bold-44" x="45.703125"/>
     <use xlink:href="#DejaVuSans-Bold-65" x="128.710938"/>
     <use xlink:href="#DejaVuSans-Bold-6e" x="196.533203"/>
     <use xlink:href="#DejaVuSans-Bold-73" x="267.724609"/>
     <use xlink:href="#DejaVuSans-Bold-65" x="327.246094"/>
     <use xlink:href="#DejaVuSans-Bold-20" x="395.068359"/>
     <use xlink:href="#DejaVuSans-Bold-56" x="429.882812"/>
     <use xlink:href="#DejaVuSans-Bold-65" x="501.775391"/>
     <use xlink:href="#DejaVuSans-Bold-63" x="569.597656"/>
     <use xlink:href="#DejaVuSans-Bold-74" x="628.875"/>
     <use xlink:href="#DejaVuSans-Bold-6f" x="676.677734"/>
     <use xlink:href="#DejaVuSans-Bold-72" x="745.378906"/>
     <use xlink:href="#DejaVuSans-Bold-29" x="794.695312"/>
    </g>
   </g>
   <g id="patch_29">
    <path d="M 260.218058 479.717452 
Q 317.669671 497.656759 375.121285 515.596067 
L 376.015459 512.732423 
Q 381.14773 516.430212 386.28 520.128 
Q 379.955497 520.248403 373.630994 520.368805 
L 374.525168 517.505162 
Q 317.073555 499.565855 259.621942 481.626548 
L 260.218058 479.717452 
z
" style="fill: #4a5568; stroke: #4a5568; stroke-linecap: round"/>
   </g>
   <g id="patch_30">
    <path d="M 597.178058 481.626548 
Q 539.726445 499.565855 482.274832 517.505162 
L 483.169006 520.368805 
Q 476.844503 520.248403 470.52 520.128 
Q 475.65227 516.430212 480.784541 512.732423 
L 481.678715 515.596067 
Q 539.130329 497.656759 596.581942 479.717452 
L 597.178058 481.626548 
z
" style="fill: #4a5568; stroke: #4a5568; stroke-linecap: round"/>
   </g>
   <g id="text_9">
    <!-- Prompt Builder -->
    <g style="fill: #1a202c" transform="translate(381.408516 542.891313) scale(0.11 -0.11)">
     <use xlink:href="#DejaVuSans-Bold-50"/>
     <use xlink:href="#DejaVuSans-Bold-72" x="73.291016"/>
     <use xlink:href="#DejaVuSans-Bold-6f" x="122.607422"/>
     <use xlink:href="#DejaVuSans-Bold-6d" x="191.308594"/>
     <use xlink:href="#DejaVuSans-Bold-70" x="295.507812"/>
     <use xlink:href="#DejaVuSans-Bold-74" x="367.089844"/>
     <use xlink:href="#DejaVuSans-Bold-20" x="414.892578"/>
     <use xlink:href="#DejaVuSans-Bold-42" x="449.707031"/>
     <use xlink:href="#DejaVuSans-Bold-75" x="525.927734"/>
     <use xlink:href="#DejaVuSans-Bold-69" x="597.119141"/>
     <use xlink:href="#DejaVuSans-Bold-6c" x="631.396484"/>
     <use xlink:href="#DejaVuSans-Bold-64" x="665.673828"/>
     <use xlink:href="#DejaVuSans-Bold-65" x="737.255859"/>
     <use xlink:href="#DejaVuSans-Bold-72" x="805.078125"/>
    </g>
   </g>
   <g id="patch_31">
    <path d="M 429.4 559.584 
Q 429.4 573.313166 429.4 587.042332 
L 432.4 587.042332 
Q 430.4 593.041166 428.4 599.04 
Q 426.4 593.041166 424.4 587.042332 
L 427.4 587.042332 
Q 427.4 573.313166 427.4 559.584 
L 429.4 559.584 
z
" style="fill: #4a5568; stroke: #4a5568; stroke-linecap: round"/>
   </g>
   <g id="text_10">
    <!-- LLM Provider -->
    <g style="fill: #1a202c" transform="translate(387.630391 615.644516) scale(0.11 -0.11)">
     <use xlink:href="#DejaVuSans-Bold-4c"/>
     <use xlink:href="#DejaVuSans-Bold-4c" x="63.720703"/>
     <use xlink:href="#DejaVuSans-Bold-4d" x="127.441406"/>
     <use xlink:href="#DejaVuSans-Bold-20" x="226.953125"/>
     <use xlink:href="#DejaVuSans-Bold-50" x="261.767578"/>
     <use xlink:href="#DejaVuSans-Bold-72" x="335.058594"/>
     <use xlink:href="#DejaVuSans-Bold-6f" x="384.375"/>
     <use xlink:href="#DejaVuSans-Bold-76" x="453.076172"/>
     <use xlink:href="#DejaVuSans-Bold-69" x="518.261719"/>
     <use xlink:href="#DejaVuSans-Bold-64" x="552.539062"/>
     <use xlink:href="#DejaVuSans-Bold-65" x="624.121094"/>
     <use xlink:href="#DejaVuSans-Bold-72" x="691.943359"/>
    </g>
    <!-- (GPT-4 / Gemini) -->
    <g style="fill: #1a202c" transform="translate(378.276094 627.962109) scale(0.11 -0.11)">
     <defs>
      <path id="DejaVuSans-Bold-54" d="M 31 4666 
L 4331 4666 
L 4331 3756 
L 2784 3756 
L 2784 0 
L 1581 0 
L 1581 3756 
L 31 3756 
L 31 4666 
z
" transform="scale(0.015625)"/>
      <path id="DejaVuSans-Bold-2d" d="M 347 2297 
L 2309 2297 
L 2309 1388 
L 347 1388 
L 347 2297 
z
" transform="scale(0.015625)"/>
      <path id="DejaVuSans-Bold-34" d="M 2356 3675 
L 1038 1722 
L 2356 1722 
L 2356 3675 
z
M 2156 4666 
L 3494 4666 
L 3494 1722 
L 4159 1722 
L 4159 850 
L 3494 850 
L 3494 0 
L 2356 0 
L 2356 850 
L 288 850 
L 288 1881 
L 2156 4666 
z
" transform="scale(0.015625)"/>
      <path id="DejaVuSans-Bold-2f" d="M 1644 4666 
L 2338 4666 
L 691 -594 
L 0 -594 
L 1644 4666 
z
" transform="scale(0.015625)"/>
     </defs>
     <use xlink:href="#DejaVuSans-Bold-28"/>
     <use xlink:href="#DejaVuSans-Bold-47" x="45.703125"/>
     <use xlink:href="#DejaVuSans-Bold-50" x="127.783203"/>
     <use xlink:href="#DejaVuSans-Bold-54" x="201.074219"/>
     <use xlink:href="#DejaVuSans-Bold-2d" x="254.537109"/>
     <use xlink:href="#DejaVuSans-Bold-34" x="296.041016"/>
     <use xlink:href="#DejaVuSans-Bold-20" x="365.621094"/>
     <use xlink:href="#DejaVuSans-Bold-2f" x="400.435547"/>
     <use xlink:href="#DejaVuSans-Bold-20" x="436.958984"/>
     <use xlink:href="#DejaVuSans-Bold-47" x="471.773438"/>
     <use xlink:href="#DejaVuSans-Bold-65" x="553.853516"/>
     <use xlink:href="#DejaVuSans-Bold-6d" x="621.675781"/>
     <use xlink:href="#DejaVuSans-Bold-69" x="725.875"/>
     <use xlink:href="#DejaVuSans-Bold-6e" x="760.152344"/>
     <use xlink:href="#DejaVuSans-Bold-69" x="831.34375"/>
     <use xlink:href="#DejaVuSans-Bold-29" x="865.621094"/>
    </g>
   </g>
   <g id="patch_32">
    <path d="M 429.4 638.496 
Q 429.4 652.225166 429.4 665.954332 
L 432.4 665.954332 
Q 430.4 671.953166 428.4 677.952 
Q 426.4 671.953166 424.4 665.954332 
L 427.4 665.954332 
Q 427.4 652.225166 427.4 638.496 
L 429.4 638.496 
z
" style="fill: #4a5568; stroke: #4a5568; stroke-linecap: round"/>
   </g>
   <g id="text_11">
    <!-- Citation Verification -->
    <g style="fill: #1a202c" transform="translate(366.274062 700.715312) scale(0.11 -0.11)">
     <defs>
      <path id="DejaVuSans-Bold-43" d="M 4288 256 
Q 3956 84 3597 -3 
Q 3238 -91 2847 -91 
Q 1681 -91 1000 561 
Q 319 1213 319 2328 
Q 319 3447 1000 4098 
Q 1681 4750 2847 4750 
Q 3238 4750 3597 4662 
Q 3956 4575 4288 4403 
L 4288 3438 
Q 3953 3666 3628 3772 
Q 3303 3878 2944 3878 
Q 2300 3878 1931 3465 
Q 1563 3053 1563 2328 
Q 1563 1606 1931 1193 
Q 2300 781 2944 781 
Q 3303 781 3628 887 
Q 3953 994 4288 1222 
L 4288 256 
z
" transform="scale(0.015625)"/>
     </defs>
     <use xlink:href="#DejaVuSans-Bold-43"/>
     <use xlink:href="#DejaVuSans-Bold-69" x="73.388672"/>
     <use xlink:href="#DejaVuSans-Bold-74" x="107.666016"/>
     <use xlink:href="#DejaVuSans-Bold-61" x="155.46875"/>
     <use xlink:href="#DejaVuSans-Bold-74" x="222.949219"/>
     <use xlink:href="#DejaVuSans-Bold-69" x="270.751953"/>
     <use xlink:href="#DejaVuSans-Bold-6f" x="305.029297"/>
     <use xlink:href="#DejaVuSans-Bold-6e" x="373.730469"/>
     <use xlink:href="#DejaVuSans-Bold-20" x="444.921875"/>
     <use xlink:href="#DejaVuSans-Bold-56" x="479.736328"/>
     <use xlink:href="#DejaVuSans-Bold-65" x="551.628906"/>
     <use xlink:href="#DejaVuSans-Bold-72" x="619.451172"/>
     <use xlink:href="#DejaVuSans-Bold-69" x="668.767578"/>
     <use xlink:href="#DejaVuSans-Bold-66" x="703.044922"/>
     <use xlink:href="#DejaVuSans-Bold-69" x="746.550781"/>
     <use xlink:href="#DejaVuSans-Bold-63" x="780.828125"/>
     <use xlink:href="#DejaVuSans-Bold-61" x="840.105469"/>
     <use xlink:href="#DejaVuSans-Bold-74" x="907.585938"/>
     <use xlink:href="#DejaVuSans-Bold-69" x="955.388672"/>
     <use xlink:href="#DejaVuSans-Bold-6f" x="989.666016"/>
     <use xlink:href="#DejaVuSans-Bold-6e" x="1058.367188"/>
    </g>
   </g>
   <g id="patch_33">
    <path d="M 429.4 717.408 
Q 429.4 731.137166 429.4 744.866332 
L 432.4 744.866332 
Q 430.4 750.865166 428.4 756.864 
Q 426.4 750.865166 424.4 744.866332 
L 427.4 744.866332 
Q 427.4 731.137166 427.4 717.408 
L 429.4 717.408 
z
" style="fill: #4a5568; stroke: #4a5568; stroke-linecap: round"/>
   </g>
   <g id="text_12">
    <!-- Faithfulness Validation -->
    <g style="fill: #1a202c" transform="translate(357.230859 779.627313) scale(0.11 -0.11)">
     <use xlink:href="#DejaVuSans-Bold-46"/>
     <use xlink:href="#DejaVuSans-Bold-61" x="62.435547"/>
     <use xlink:href="#DejaVuSans-Bold-69" x="129.916016"/>
     <use xlink:href="#DejaVuSans-Bold-74" x="164.193359"/>
     <use xlink:href="#DejaVuSans-Bold-68" x="211.996094"/>
     <use xlink:href="#DejaVuSans-Bold-66" x="283.1875"/>
     <use xlink:href="#DejaVuSans-Bold-75" x="326.693359"/>
     <use xlink:href="#DejaVuSans-Bold-6c" x="397.884766"/>
     <use xlink:href="#DejaVuSans-Bold-6e" x="432.162109"/>
     <use xlink:href="#DejaVuSans-Bold-65" x="503.353516"/>
     <use xlink:href="#DejaVuSans-Bold-73" x="571.175781"/>
     <use xlink:href="#DejaVuSans-Bold-73" x="630.697266"/>
     <use xlink:href="#DejaVuSans-Bold-20" x="690.21875"/>
     <use xlink:href="#DejaVuSans-Bold-56" x="725.033203"/>
     <use xlink:href="#DejaVuSans-Bold-61" x="796.925781"/>
     <use xlink:href="#DejaVuSans-Bold-6c" x="864.40625"/>
     <use xlink:href="#DejaVuSans-Bold-69" x="898.683594"/>
     <use xlink:href="#DejaVuSans-Bold-64" x="932.960938"/>
     <use xlink:href="#DejaVuSans-Bold-61" x="1004.542969"/>
     <use xlink:href="#DejaVuSans-Bold-74" x="1072.023438"/>
     <use xlink:href="#DejaVuSans-Bold-69" x="1119.826172"/>
     <use xlink:href="#DejaVuSans-Bold-6f" x="1154.103516"/>
     <use xlink:href="#DejaVuSans-Bold-6e" x="1222.804688"/>
    </g>
   </g>
   <g id="patch_34">
    <path d="M 429.4 796.32 
Q 429.4 810.049166 429.4 823.778332 
L 432.4 823.778332 
Q 430.4 829.777166 428.4 835.776 
Q 426.4 829.777166 424.4 823.778332 
L 427.4 823.778332 
Q 427.4 810.049166 427.4 796.32 
L 429.4 796.32 
z
" style="fill: #4a5568; stroke: #4a5568; stroke-linecap: round"/>
   </g>
   <g id="text_13">
    <!-- Final Answer -->
    <g style="fill: #1a202c" transform="translate(388.360859 858.539313) scale(0.11 -0.11)">
     <defs>
      <path id="DejaVuSans-Bold-77" d="M 225 3500 
L 1313 3500 
L 1900 1088 
L 2491 3500 
L 3425 3500 
L 4013 1113 
L 4603 3500 
L 5691 3500 
L 4769 0 
L 3547 0 
L 2956 2406 
L 2369 0 
L 1147 0 
L 225 3500 
z
" transform="scale(0.015625)"/>
     </defs>
     <use xlink:href="#DejaVuSans-Bold-46"/>
     <use xlink:href="#DejaVuSans-Bold-69" x="68.310547"/>
     <use xlink:href="#DejaVuSans-Bold-6e" x="102.587891"/>
     <use xlink:href="#DejaVuSans-Bold-61" x="173.779297"/>
     <use xlink:href="#DejaVuSans-Bold-6c" x="241.259766"/>
     <use xlink:href="#DejaVuSans-Bold-20" x="275.537109"/>
     <use xlink:href="#DejaVuSans-Bold-41" x="310.351562"/>
     <use xlink:href="#DejaVuSans-Bold-6e" x="387.744141"/>
     <use xlink:href="#DejaVuSans-Bold-73" x="458.935547"/>
     <use xlink:href="#DejaVuSans-Bold-77" x="518.457031"/>
     <use xlink:href="#DejaVuSans-Bold-65" x="610.839844"/>
     <use xlink:href="#DejaVuSans-Bold-72" x="678.662109"/>
    </g>
   </g>
   <g id="text_14">
    <!-- Offline Pipeline -->
    <g transform="translate(72.732187 105.84) scale(0.14 -0.14)">
     <use xlink:href="#DejaVuSans-Bold-4f"/>
     <use xlink:href="#DejaVuSans-Bold-66" x="85.009766"/>
     <use xlink:href="#DejaVuSans-Bold-66" x="128.515625"/>
     <use xlink:href="#DejaVuSans-Bold-6c" x="172.021484"/>
     <use xlink:href="#DejaVuSans-Bold-69" x="206.298828"/>
     <use xlink:href="#DejaVuSans-Bold-6e" x="240.576172"/>
     <use xlink:href="#DejaVuSans-Bold-65" x="311.767578"/>
     <use xlink:href="#DejaVuSans-Bold-20" x="379.589844"/>
     <use xlink:href="#DejaVuSans-Bold-50" x="414.404297"/>
     <use xlink:href="#DejaVuSans-Bold-69" x="487.695312"/>
     <use xlink:href="#DejaVuSans-Bold-70" x="521.972656"/>
     <use xlink:href="#DejaVuSans-Bold-65" x="593.554688"/>
     <use xlink:href="#DejaVuSans-Bold-6c" x="661.376953"/>
     <use xlink:href="#DejaVuSans-Bold-69" x="695.654297"/>
     <use xlink:href="#DejaVuSans-Bold-6e" x="729.931641"/>
     <use xlink:href="#DejaVuSans-Bold-65" x="801.123047"/>
    </g>
   </g>
   <g id="text_15">
    <!-- PDF Corpus -->
    <g style="fill: #1a202c" transform="translate(97.638125 148.331312) scale(0.11 -0.11)">
     <use xlink:href="#DejaVuSans-Bold-50"/>
     <use xlink:href="#DejaVuSans-Bold-44" x="73.291016"/>
     <use xlink:href="#DejaVuSans-Bold-46" x="156.298828"/>
     <use xlink:href="#DejaVuSans-Bold-20" x="224.609375"/>
     <use xlink:href="#DejaVuSans-Bold-43" x="259.423828"/>
     <use xlink:href="#DejaVuSans-Bold-6f" x="332.8125"/>
     <use xlink:href="#DejaVuSans-Bold-72" x="401.513672"/>
     <use xlink:href="#DejaVuSans-Bold-70" x="450.830078"/>
     <use xlink:href="#DejaVuSans-Bold-75" x="522.412109"/>
     <use xlink:href="#DejaVuSans-Bold-73" x="593.603516"/>
    </g>
   </g>
   <g id="patch_35">
    <path d="M 134.56 165.024 
Q 134.56 173.821768 134.56 182.619536 
L 137.56 182.619536 
Q 135.56 188.617768 133.56 194.616 
Q 131.56 188.617768 129.56 182.619536 
L 132.56 182.619536 
Q 132.56 173.821768 132.56 165.024 
L 134.56 165.024 
z
" style="fill: #4a5568; stroke: #4a5568; stroke-linecap: round"/>
   </g>
   <g id="text_16">
    <!-- Downloader -->
    <g style="fill: #1a202c" transform="translate(96.463359 217.379312) scale(0.11 -0.11)">
     <use xlink:href="#DejaVuSans-Bold-44"/>
     <use xlink:href="#DejaVuSans-Bold-6f" x="83.007812"/>
     <use xlink:href="#DejaVuSans-Bold-77" x="151.708984"/>
     <use xlink:href="#DejaVuSans-Bold-6e" x="244.091797"/>
     <use xlink:href="#DejaVuSans-Bold-6c" x="315.283203"/>
     <use xlink:href="#DejaVuSans-Bold-6f" x="349.560547"/>
     <use xlink:href="#DejaVuSans-Bold-61" x="418.261719"/>
     <use xlink:href="#DejaVuSans-Bold-64" x="485.742188"/>
     <use xlink:href="#DejaVuSans-Bold-65" x="557.324219"/>
     <use xlink:href="#DejaVuSans-Bold-72" x="625.146484"/>
    </g>
   </g>
   <g id="patch_36">
    <path d="M 134.56 234.072 
Q 134.56 242.869768 134.56 251.667536 
L 137.56 251.667536 
Q 135.56 257.665768 133.56 263.664 
Q 131.56 257.665768 129.56 251.667536 
L 132.56 251.667536 
Q 132.56 242.869768 132.56 234.072 
L 134.56 234.072 
z
" style="fill: #4a5568; stroke: #4a5568; stroke-linecap: round"/>
   </g>
   <g id="text_17">
    <!-- Parser -->
    <g style="fill: #1a202c" transform="translate(113.533125 286.427312) scale(0.11 -0.11)">
     <use xlink:href="#DejaVuSans-Bold-50"/>
     <use xlink:href="#DejaVuSans-Bold-61" x="70.666016"/>
     <use xlink:href="#DejaVuSans-Bold-72" x="138.146484"/>
     <use xlink:href="#DejaVuSans-Bold-73" x="187.462891"/>
     <use xlink:href="#DejaVuSans-Bold-65" x="246.984375"/>
     <use xlink:href="#DejaVuSans-Bold-72" x="314.806641"/>
    </g>
   </g>
   <g id="patch_37">
    <path d="M 134.56 303.12 
Q 134.56 311.917768 134.56 320.715536 
L 137.56 320.715536 
Q 135.56 326.713768 133.56 332.712 
Q 131.56 326.713768 129.56 320.715536 
L 132.56 320.715536 
Q 132.56 311.917768 132.56 303.12 
L 134.56 303.12 
z
" style="fill: #4a5568; stroke: #4a5568; stroke-linecap: round"/>
   </g>
   <g id="text_18">
    <!-- Normalizer -->
    <g style="fill: #1a202c" transform="translate(99.608672 355.475312) scale(0.11 -0.11)">
     <defs>
      <path id="DejaVuSans-Bold-4e" d="M 588 4666 
L 1931 4666 
L 3628 1466 
L 3628 4666 
L 4769 4666 
L 4769 0 
L 3425 0 
L 1728 3200 
L 1728 0 
L 588 0 
L 588 4666 
z
" transform="scale(0.015625)"/>
      <path id="DejaVuSans-Bold-7a" d="M 366 3500 
L 3419 3500 
L 3419 2719 
L 1575 800 
L 3419 800 
L 3419 0 
L 288 0 
L 288 781 
L 2131 2700 
L 366 2700 
L 366 3500 
z
" transform="scale(0.015625)"/>
     </defs>
     <use xlink:href="#DejaVuSans-Bold-4e"/>
     <use xlink:href="#DejaVuSans-Bold-6f" x="83.691406"/>
     <use xlink:href="#DejaVuSans-Bold-72" x="152.392578"/>
     <use xlink:href="#DejaVuSans-Bold-6d" x="201.708984"/>
     <use xlink:href="#DejaVuSans-Bold-61" x="305.908203"/>
     <use xlink:href="#DejaVuSans-Bold-6c" x="373.388672"/>
     <use xlink:href="#DejaVuSans-Bold-69" x="407.666016"/>
     <use xlink:href="#DejaVuSans-Bold-7a" x="441.943359"/>
     <use xlink:href="#DejaVuSans-Bold-65" x="500.146484"/>
     <use xlink:href="#DejaVuSans-Bold-72" x="567.96875"/>
    </g>
   </g>
   <g id="patch_38">
    <path d="M 134.56 372.168 
Q 134.56 380.965768 134.56 389.763536 
L 137.56 389.763536 
Q 135.56 395.761768 133.56 401.76 
Q 131.56 395.761768 129.56 389.763536 
L 132.56 389.763536 
Q 132.56 380.965768 132.56 372.168 
L 134.56 372.168 
z
" style="fill: #4a5568; stroke: #4a5568; stroke-linecap: round"/>
   </g>
   <g id="text_19">
    <!-- Semantic Chunker -->
    <g style="fill: #1a202c" transform="translate(77.082734 424.523312) scale(0.11 -0.11)">
     <use xlink:href="#DejaVuSans-Bold-53"/>
     <use xlink:href="#DejaVuSans-Bold-65" x="72.021484"/>
     <use xlink:href="#DejaVuSans-Bold-6d" x="139.84375"/>
     <use xlink:href="#DejaVuSans-Bold-61" x="244.042969"/>
     <use xlink:href="#DejaVuSans-Bold-6e" x="311.523438"/>
     <use xlink:href="#DejaVuSans-Bold-74" x="382.714844"/>
     <use xlink:href="#DejaVuSans-Bold-69" x="430.517578"/>
     <use xlink:href="#DejaVuSans-Bold-63" x="464.794922"/>
     <use xlink:href="#DejaVuSans-Bold-20" x="524.072266"/>
     <use xlink:href="#DejaVuSans-Bold-43" x="558.886719"/>
     <use xlink:href="#DejaVuSans-Bold-68" x="632.275391"/>
     <use xlink:href="#DejaVuSans-Bold-75" x="703.466797"/>
     <use xlink:href="#DejaVuSans-Bold-6e" x="774.658203"/>
     <use xlink:href="#DejaVuSans-Bold-6b" x="845.849609"/>
     <use xlink:href="#DejaVuSans-Bold-65" x="909.728516"/>
     <use xlink:href="#DejaVuSans-Bold-72" x="977.550781"/>
    </g>
   </g>
   <g id="patch_39">
    <path d="M 134.56 441.216 
Q 134.56 450.013768 134.56 458.811536 
L 137.56 458.811536 
Q 135.56 464.809768 133.56 470.808 
Q 131.56 464.809768 129.56 458.811536 
L 132.56 458.811536 
Q 132.56 450.013768 132.56 441.216 
L 134.56 441.216 
z
" style="fill: #4a5568; stroke: #4a5568; stroke-linecap: round"/>
   </g>
   <g id="text_20">
    <!-- Chunk Optimizer -->
    <g style="fill: #1a202c" transform="translate(81.817891 493.571313) scale(0.11 -0.11)">
     <use xlink:href="#DejaVuSans-Bold-43"/>
     <use xlink:href="#DejaVuSans-Bold-68" x="73.388672"/>
     <use xlink:href="#DejaVuSans-Bold-75" x="144.580078"/>
     <use xlink:href="#DejaVuSans-Bold-6e" x="215.771484"/>
     <use xlink:href="#DejaVuSans-Bold-6b" x="286.962891"/>
     <use xlink:href="#DejaVuSans-Bold-20" x="353.466797"/>
     <use xlink:href="#DejaVuSans-Bold-4f" x="388.28125"/>
     <use xlink:href="#DejaVuSans-Bold-70" x="473.291016"/>
     <use xlink:href="#DejaVuSans-Bold-74" x="544.873047"/>
     <use xlink:href="#DejaVuSans-Bold-69" x="592.675781"/>
     <use xlink:href="#DejaVuSans-Bold-6d" x="626.953125"/>
     <use xlink:href="#DejaVuSans-Bold-69" x="731.152344"/>
     <use xlink:href="#DejaVuSans-Bold-7a" x="765.429688"/>
     <use xlink:href="#DejaVuSans-Bold-65" x="823.632812"/>
     <use xlink:href="#DejaVuSans-Bold-72" x="891.455078"/>
    </g>
   </g>
   <g id="patch_40">
    <path d="M 134.56 510.264 
Q 134.56 519.061768 134.56 527.859536 
L 137.56 527.859536 
Q 135.56 533.857768 133.56 539.856 
Q 131.56 533.857768 129.56 527.859536 
L 132.56 527.859536 
Q 132.56 519.061768 132.56 510.264 
L 134.56 510.264 
z
" style="fill: #4a5568; stroke: #4a5568; stroke-linecap: round"/>
   </g>
   <g id="text_21">
    <!-- Embeddings -->
    <g style="fill: #1a202c" transform="translate(95.519766 562.576344) scale(0.11 -0.11)">
     <use xlink:href="#DejaVuSans-Bold-45"/>
     <use xlink:href="#DejaVuSans-Bold-6d" x="68.310547"/>
     <use xlink:href="#DejaVuSans-Bold-62" x="172.509766"/>
     <use xlink:href="#DejaVuSans-Bold-65" x="244.091797"/>
     <use xlink:href="#DejaVuSans-Bold-64" x="311.914062"/>
     <use xlink:href="#DejaVuSans-Bold-64" x="383.496094"/>
     <use xlink:href="#DejaVuSans-Bold-69" x="455.078125"/>
     <use xlink:href="#DejaVuSans-Bold-6e" x="489.355469"/>
     <use xlink:href="#DejaVuSans-Bold-67" x="560.546875"/>
     <use xlink:href="#DejaVuSans-Bold-73" x="632.128906"/>
    </g>
   </g>
   <g id="patch_41">
    <path d="M 132.7063 578.791234 
Q 171.701492 514.865783 210.696684 450.940332 
L 208.135585 449.378035 
Q 212.967792 445.297018 217.8 441.216 
Q 216.382591 447.38008 214.965182 453.544161 
L 212.404083 451.981864 
Q 173.408891 515.907315 134.4137 579.832766 
L 132.7063 578.791234 
z
" style="fill: #4a5568; stroke: #4a5568; stroke-linecap: round"/>
   </g>
   <g id="patch_42">
    <path d="M 133.248454 578.361769 
Q 338.146097 511.183362 543.043739 444.004956 
L 542.109102 441.154262 
Q 548.434551 441.185131 554.76 441.216 
Q 549.680734 444.986056 544.601468 448.756111 
L 543.666831 445.905418 
Q 338.769188 513.083825 133.871546 580.262231 
L 133.248454 578.361769 
z
" style="fill: #4a5568; stroke: #4a5568; stroke-linecap: round"/>
   </g>
   <g id="text_22">
    <!-- Frontend -->
    <g style="fill: #1a202c" transform="translate(716.275781 158.195312) scale(0.11 -0.11)">
     <use xlink:href="#DejaVuSans-Bold-46"/>
     <use xlink:href="#DejaVuSans-Bold-72" x="61.935547"/>
     <use xlink:href="#DejaVuSans-Bold-6f" x="111.251953"/>
     <use xlink:href="#DejaVuSans-Bold-6e" x="179.953125"/>
     <use xlink:href="#DejaVuSans-Bold-74" x="251.144531"/>
     <use xlink:href="#DejaVuSans-Bold-65" x="298.947266"/>
     <use xlink:href="#DejaVuSans-Bold-6e" x="366.769531"/>
     <use xlink:href="#DejaVuSans-Bold-64" x="437.960938"/>
    </g>
   </g>
   <g id="text_23">
    <!-- Backend -->
    <g style="fill: #1a202c" transform="translate(718.040078 197.651313) scale(0.11 -0.11)">
     <use xlink:href="#DejaVuSans-Bold-42"/>
     <use xlink:href="#DejaVuSans-Bold-61" x="76.220703"/>
     <use xlink:href="#DejaVuSans-Bold-63" x="143.701172"/>
     <use xlink:href="#DejaVuSans-Bold-6b" x="202.978516"/>
     <use xlink:href="#DejaVuSans-Bold-65" x="266.857422"/>
     <use xlink:href="#DejaVuSans-Bold-6e" x="334.679688"/>
     <use xlink:href="#DejaVuSans-Bold-64" x="405.871094"/>
    </g>
   </g>
   <g id="text_24">
    <!-- Core Logic -->
    <g style="fill: #1a202c" transform="translate(711.761484 237.064344) scale(0.11 -0.11)">
     <use xlink:href="#DejaVuSans-Bold-43"/>
     <use xlink:href="#DejaVuSans-Bold-6f" x="73.388672"/>
     <use xlink:href="#DejaVuSans-Bold-72" x="142.089844"/>
     <use xlink:href="#DejaVuSans-Bold-65" x="191.40625"/>
     <use xlink:href="#DejaVuSans-Bold-20" x="259.228516"/>
     <use xlink:href="#DejaVuSans-Bold-4c" x="294.042969"/>
     <use xlink:href="#DejaVuSans-Bold-6f" x="357.763672"/>
     <use xlink:href="#DejaVuSans-Bold-67" x="426.464844"/>
     <use xlink:href="#DejaVuSans-Bold-69" x="498.046875"/>
     <use xlink:href="#DejaVuSans-Bold-63" x="532.324219"/>
    </g>
   </g>
   <g id="text_25">
    <!-- Database -->
    <g style="fill: #1a202c" transform="translate(715.029687 276.563313) scale(0.11 -0.11)">
     <use xlink:href="#DejaVuSans-Bold-44"/>
     <use xlink:href="#DejaVuSans-Bold-61" x="83.007812"/>
     <use xlink:href="#DejaVuSans-Bold-74" x="150.488281"/>
     <use xlink:href="#DejaVuSans-Bold-61" x="198.291016"/>
     <use xlink:href="#DejaVuSans-Bold-62" x="265.771484"/>
     <use xlink:href="#DejaVuSans-Bold-61" x="337.353516"/>
     <use xlink:href="#DejaVuSans-Bold-73" x="404.833984"/>
     <use xlink:href="#DejaVuSans-Bold-65" x="464.355469"/>
    </g>
   </g>
  </g>
 </g>
 <defs>
  <clipPath id="pd2624cb32e">
   <rect x="7.2" y="7.2" width="842.4" height="986.4"/>
  </clipPath>
 </defs>
</svg>
